<?xml version="1.0" encoding="UTF-8" standalone="no"?>
<svg
   xmlns:dc="http://purl.org/dc/elements/1.1/"
   xmlns:cc="http://creativecommons.org/ns#"
   xmlns:rdf="http://www.w3.org/1999/02/22-rdf-syntax-ns#"
   xmlns:svg="http://www.w3.org/2000/svg"
   xmlns="http://www.w3.org/2000/svg"
   xmlns:sodipodi="http://sodipodi.sourceforge.net/DTD/sodipodi-0.dtd"
   xmlns:inkscape="http://www.inkscape.org/namespaces/inkscape"
   version="1.1"
   id="Layer_1"
   x="0px"
   y="0px"
   width="24"
   height="24"
   viewBox="0 0 24 24"
   enable-background="new 0 0 24 24"
   xml:space="preserve"
   sodipodi:docname="icon-instagram.svg"
   inkscape:version="1.0 (1.0+r73+1)"><metadata
   id="metadata9"><rdf:RDF><cc:Work
       rdf:about=""><dc:format>image/svg+xml</dc:format><dc:type
         rdf:resource="http://purl.org/dc/dcmitype/StillImage" /><dc:title></dc:title></cc:Work></rdf:RDF></metadata><defs
   id="defs7" /><sodipodi:namedview
   inkscape:document-rotation="0"
   pagecolor="#ffffff"
   bordercolor="#666666"
   borderopacity="1"
   objecttolerance="10"
   gridtolerance="10"
   guidetolerance="10"
   inkscape:pageopacity="0"
   inkscape:pageshadow="2"
   inkscape:window-width="1880"
   inkscape:window-height="1055"
   id="namedview5"
   showgrid="false"
   inkscape:zoom="11.355164"
   inkscape:cx="13.81762"
   inkscape:cy="12.08913"
   inkscape:window-x="40"
   inkscape:window-y="0"
   inkscape:window-maximized="1"
   inkscape:current-layer="Layer_1" />
<path
   fill="#ffffff"
   d="m 12,2.163 c 3.204,0 3.584,0.012 4.85,0.07 3.252,0.148 4.771,1.691 4.919,4.919 0.058,1.265 0.069,1.645 0.069,4.849 0,3.205 -0.012,3.584 -0.069,4.849 -0.149,3.225 -1.664,4.771 -4.919,4.919 -1.266,0.058 -1.644,0.07 -4.85,0.07 -3.204,0 -3.584,-0.012 -4.849,-0.07 C 3.891,21.62 2.38,20.07 2.232,16.849 2.174,15.584 2.162,15.205 2.162,12 2.162,8.796 2.175,8.417 2.232,7.151 2.381,3.924 3.896,2.38 7.151,2.232 8.417,2.175 8.796,2.163 12,2.163 Z M 12,0 C 8.741,0 8.333,0.014 7.053,0.072 2.695,0.272 0.273,2.69 0.073,7.052 0.014,8.333 0,8.741 0,12 c 0,3.259 0.014,3.668 0.072,4.948 0.2,4.358 2.618,6.78 6.98,6.98 C 8.333,23.986 8.741,24 12,24 c 3.259,0 3.668,-0.014 4.948,-0.072 4.354,-0.2 6.782,-2.618 6.979,-6.98 C 23.986,15.668 24,15.259 24,12 24,8.741 23.986,8.333 23.928,7.053 23.732,2.699 21.311,0.273 16.949,0.073 15.668,0.014 15.259,0 12,0 Z m 0,5.838 c -3.403,0 -6.162,2.759 -6.162,6.162 0,3.403 2.759,6.163 6.162,6.163 3.403,0 6.162,-2.759 6.162,-6.163 C 18.162,8.597 15.403,5.838 12,5.838 Z M 12,16 C 9.791,16 8,14.21 8,12 8,9.791 9.791,8 12,8 c 2.209,0 4,1.791 4,4 0,2.21 -1.791,4 -4,4 z M 18.406,4.155 c -0.796,0 -1.441,0.645 -1.441,1.44 0,0.795 0.645,1.44 1.441,1.44 0.795,0 1.439,-0.645 1.439,-1.44 0,-0.795 -0.644,-1.44 -1.439,-1.44 z"
   id="path2" />
</svg>
